<svg width="74" height="72" viewBox="0 0 74 72" fill="none" xmlns="http://www.w3.org/2000/svg">
<g clip-path="url(#clip0_96182_337)" filter="url(#filter0_d_96182_337)">
<path d="M42.4527 18.4851H23.207C22.1758 18.4851 21.3379 17.6472 21.3379 16.616C21.3379 15.5847 22.1758 14.7469 23.207 14.7469H42.4527C43.484 14.7469 44.3219 15.5847 44.3219 16.616C44.3219 17.6472 43.484 18.4851 42.4527 18.4851Z" fill="#2D527C"/>
<path d="M27.3191 49.4871H21.3766C11.7988 49.4871 4 41.6883 4 32.1105C4 25.7683 7.45469 19.9289 13.0234 16.8738C13.9258 16.3711 15.073 16.7062 15.5758 17.6215C16.0785 18.5238 15.7434 19.6711 14.8281 20.1738C10.4582 22.5715 7.75117 27.1476 7.75117 32.1234C7.75117 39.6386 13.8613 45.7488 21.3766 45.7488H27.3191C28.3504 45.7488 29.1883 46.5867 29.1883 47.6179C29.2012 48.6363 28.3504 49.4871 27.3191 49.4871Z" fill="#2D527C"/>
<path d="M28.9176 63.2027C20.3711 63.2027 13.4102 56.2418 13.4102 47.6824C13.4102 46.6512 14.248 45.8133 15.2793 45.8133C16.3105 45.8133 17.1484 46.6512 17.1484 47.6824C17.1484 54.1664 22.4207 59.4515 28.9176 59.4515C35.4145 59.4515 40.6867 54.1793 40.6867 47.6824C40.6867 41.1984 35.4145 35.9133 28.9176 35.9133C25.6563 35.9133 22.627 37.2152 20.384 39.5742C19.675 40.3219 18.4891 40.3605 17.7285 39.6387C16.9809 38.9297 16.9422 37.7437 17.6641 36.9832C20.6289 33.8637 24.625 32.1492 28.9176 32.1492C37.477 32.1492 44.4379 39.1101 44.4379 47.6695C44.4379 56.2289 37.477 63.2027 28.9176 63.2027Z" fill="#F0BF5F"/>
<path d="M53.5645 45.7875H42.1176C41.0864 45.7875 40.2485 44.9496 40.2485 43.9183C40.2485 42.8871 41.0864 42.0492 42.1176 42.0492H53.5645C54.5957 42.0492 55.4336 42.8871 55.4336 43.9183C55.4336 44.9496 54.5957 45.7875 53.5645 45.7875Z" fill="#F0BF5F"/>
<path d="M65.8105 53.3285H42.5559C41.5246 53.3285 40.6867 52.4906 40.6867 51.4593C40.6867 50.4281 41.5246 49.5902 42.5559 49.5902H65.8105C66.0555 49.5902 66.2488 49.3968 66.2488 49.1519V38.5043C66.2488 38.1433 65.9523 37.8597 65.6043 37.8597H63.9801C63.6191 37.8597 63.3355 38.1562 63.3355 38.5043V43.5058C63.3355 44.5371 62.4977 45.375 61.4664 45.375C60.4352 45.375 59.5973 44.5371 59.5973 43.5058V38.5043C59.5973 36.0808 61.5695 34.1086 63.993 34.1086H65.6172C68.0406 34.1086 70.0129 36.0808 70.0129 38.5043V49.1519C70 51.4464 68.118 53.3285 65.8105 53.3285Z" fill="#F0BF5F"/>
<path d="M28.9176 52.9418C31.865 52.9418 34.2543 50.5524 34.2543 47.6051C34.2543 44.6577 31.865 42.2683 28.9176 42.2683C25.9702 42.2683 23.5808 44.6577 23.5808 47.6051C23.5808 50.5524 25.9702 52.9418 28.9176 52.9418Z" fill="#CEE8FA"/>
<path d="M28.9176 54.8109C24.9472 54.8109 21.7117 51.5754 21.7117 47.6051C21.7117 43.6347 24.9472 40.3992 28.9176 40.3992C32.8879 40.3992 36.1234 43.6347 36.1234 47.6051C36.1234 51.5754 32.9008 54.8109 28.9176 54.8109ZM28.9176 44.1504C27.0097 44.1504 25.4629 45.6972 25.4629 47.6051C25.4629 49.5129 27.0097 51.0598 28.9176 51.0598C30.8254 51.0598 32.3723 49.5129 32.3723 47.6051C32.3723 45.6972 30.8254 44.1504 28.9176 44.1504Z" fill="#F0BF5F"/>
<path d="M31.8953 24.5695V8.64959C31.8953 6.45818 33.6742 4.67928 35.8656 4.67928H64.1476C66.3391 4.67928 68.118 6.45818 68.118 8.64959V24.5695C68.118 26.7609 66.3391 28.5398 64.1476 28.5398H35.8785C33.6742 28.5398 31.8953 26.7609 31.8953 24.5695Z" fill="#CEE8FA"/>
<path d="M64.1476 30.4219H35.8785C32.6558 30.4219 30.0262 27.7922 30.0262 24.5696V8.64963C30.0262 5.42697 32.6558 2.79729 35.8785 2.79729H64.1605C67.3832 2.79729 70.0129 5.42697 70.0129 8.64963V24.5696C70 27.7922 67.3703 30.4219 64.1476 30.4219ZM35.8785 6.54846C34.7183 6.54846 33.7773 7.48947 33.7773 8.64963V24.5696C33.7773 25.7297 34.7183 26.6707 35.8785 26.6707H64.1605C65.3207 26.6707 66.2617 25.7297 66.2617 24.5696V8.64963C66.2617 7.48947 65.3207 6.54846 64.1605 6.54846H35.8785Z" fill="#2D527C"/>
<path d="M48.4468 17.7118H47.8152V16.5645C47.8152 15.9071 47.1578 15.4817 46.1394 15.4817C45.1211 15.4817 44.4636 15.9071 44.4636 16.5645V17.7118H43.3164L46.5519 11.2149C46.6035 11.086 46.6679 10.9313 46.6679 10.7766C46.6679 9.9645 45.5851 9.46176 44.9922 9.46176C44.3734 9.46176 43.8707 9.77114 43.5871 10.3254L39.2043 18.9493C39.0496 19.2329 39.0238 19.4778 39.0238 19.6067C39.0238 20.3286 39.5008 20.8184 40.1968 20.8184H44.4636V22.6489C44.4636 23.4094 45.3273 23.7446 46.1394 23.7446C46.9386 23.7446 47.8152 23.3965 47.8152 22.6489V20.8184H48.4468C49.014 20.8184 49.5425 20.0579 49.5425 19.2586C49.5425 18.511 49.1945 17.7118 48.4468 17.7118Z" fill="#2D527C"/>
<path d="M59.8937 17.7118H59.2621V16.5645C59.2621 15.9071 58.6046 15.4817 57.5863 15.4817C56.5679 15.4817 55.9105 15.9071 55.9105 16.5645V17.7118H54.7632L58.0117 11.2149C58.0632 11.086 58.1277 10.9313 58.1277 10.7766C58.1277 9.9645 57.0449 9.46176 56.4519 9.46176C55.8332 9.46176 55.3304 9.77114 55.0468 10.3254L50.664 18.9493C50.5093 19.2329 50.4836 19.4778 50.4836 19.6067C50.4836 20.3286 50.9605 20.8184 51.6566 20.8184H55.9234V22.6489C55.9234 23.4094 56.7871 23.7446 57.5992 23.7446C58.4113 23.7446 59.275 23.3965 59.275 22.6489V20.8184H59.9066C60.4738 20.8184 61.0023 20.0579 61.0023 19.2586C61.0023 18.511 60.6543 17.7118 59.8937 17.7118Z" fill="#2D527C"/>
</g>
<defs>
<filter id="filter0_d_96182_337" x="0" y="0" width="74" height="74" filterUnits="userSpaceOnUse" color-interpolation-filters="sRGB">
<feFlood flood-opacity="0" result="BackgroundImageFix"/>
<feColorMatrix in="SourceAlpha" type="matrix" values="0 0 0 0 0 0 0 0 0 0 0 0 0 0 0 0 0 0 127 0" result="hardAlpha"/>
<feOffset dy="4"/>
<feGaussianBlur stdDeviation="2"/>
<feComposite in2="hardAlpha" operator="out"/>
<feColorMatrix type="matrix" values="0 0 0 0 0 0 0 0 0 0 0 0 0 0 0 0 0 0 0.25 0"/>
<feBlend mode="normal" in2="BackgroundImageFix" result="effect1_dropShadow_96182_337"/>
<feBlend mode="normal" in="SourceGraphic" in2="effect1_dropShadow_96182_337" result="shape"/>
</filter>
<clipPath id="clip0_96182_337">
<rect width="66" height="66" fill="white" transform="translate(4)"/>
</clipPath>
</defs>
</svg>
